<svg xmlns="http://www.w3.org/2000/svg" width="720" height="475" xmlns:v="https://vecta.io/nano"><path d="M0 0h720v475H0V0Z" fill="#144779"/><path d="M0 0h720v475H0V0zm162.395 38.133l-1.87 1.12a300.407 300.407 0 0 0-5.2 3.27c-4.177 1.855-5.937 1.706-10.325.477-3.227-1.43-6.295-3.093-9.375-4.813C123.079 30.645 123.079 30.645 109 29c-2.532.978-4.656 1.948-7 3.25a2711.71 2711.71 0 0 1-4.195 2.21l-2.306 1.23c-3.727 1.954-7.506 3.8-11.281 5.658-8.561 4.226-17.078 8.533-25.468 13.09l-2.218 1.177C50.622 58.88 47.203 62.5 45 69c-.306 2.763-.306 2.763-.275 5.705l-.029 3.398.003 3.643-.013 3.77.002 9.9-.024 6.053-.027 11.652-.028 3.637c.04 7.377.687 12.031 5.559 17.816 3.48 2.982 7.117 5.082 11.145 7.238l2.406 1.313A483.31 483.31 0 0 0 81 152.013a321.971 321.971 0 0 1 10.672 5.483l2.347 1.264 4.487 2.447c4.013 2.212 4.013 2.212 8.494 2.793v16l4.888.011 45.599.173 23.443.087 20.437.084 10.817.037 12.088.062 3.607-.015c6.567.083 10.835.527 16.121 4.561 3.715 5.878 3.452 11.826 3.434 18.629l.015 3.357-.003 7.002.052 10.698-.002 6.818.034 3.22c-.057 6.082-.473 9.645-4.53 14.276-3.902 3.429-7.148 4.123-12.258 4.158l-3.302.03-3.622.017-3.814.03-10.357.068-10.822.076-20.495.138-23.333.16L107 254l-.155 30.59-.071 14.205-.059 13.713a852.583 852.583 0 0 1-.032 5.227 771.412 771.412 0 0 0-.024 7.332l-.032 2.173c.034 5.669 1.441 9.684 5.31 13.842l2.063 1.73 2.063 1.77c3.584 2.623 6.722 2.543 11.022 2.541l3.882.006 4.289-.009 4.536.003 12.499-.007 13.466-.002 23.342-.008 33.748-.012 54.751-.019 53.195-.02h3.31l16.441-.005L487 347l-.095 3.573-.235 13.285-.123 5.72c-.348 13.04-.212 23.136 9.05 33.262 4.915 3.46 10.489 6.023 15.84 8.723l3.632 1.856 7.39 3.772a1743.563 1743.563 0 0 1 15.291 7.934l2.791 1.455 14.72 7.729 3.133 1.65 5.896 3.122c10.25 5.488 10.25 5.488 21.585 7.356l2.805.06c9.474-1.416 18.09-6.834 26.445-11.247l7.242-3.79 3.487-1.824a607.605 607.605 0 0 1 11.396-5.761l19.688-10 2.909-1.489c14.88-7.632 14.88-7.632 24.21-21.013 1.084-3.879 1.231-7.479 1.218-11.47l.015-2.393.01-7.787.014-5.44.002-11.385.034-14.56.013-11.229.015-5.366-.006-7.516.023-2.219c-.069-6.828-2.405-12.712-6.524-18.2-3.387-3.274-7.512-5.382-11.648-7.571l-2.052-1.089L663 284l-2.22-1.176a14295.8 14295.8 0 0 0-6.764-3.582l-2.351-1.244L646 275l-.01-2.546-.278-61.424-.134-29.705-.12-25.9-.061-13.705-.064-12.92-.017-4.722c-.03-19.655-3.662-35.928-17.379-50.766-13.74-13.149-30.363-16.658-48.819-16.504l-4.074.009-8.705.03-13.783.019-4.737-.004-2.394-.001c-10.68-.006-21.36.006-32.039.06l-21.685.02a875.86 875.86 0 0 0-11.45.029l-10.758.005c-1.933-.007-3.866.027-5.799.062-6.19-.088-9.845-.447-14.334-4.927A330.418 330.418 0 0 1 446 48c-6.631-5.975-14.228-10.468-22.438-13.875l-1.91-.793c-2.197-.853-4.413-1.594-6.652-2.332l-3.024-1.01c-10.851-3.276-21.06-3.56-32.335-3.508l-6.017-.02a2827.17 2827.17 0 0 0-16.215 0c-5.684.01-11.367.001-17.05-.005-9.542-.007-19.083.002-28.624.022a8435.22 8435.22 0 0 1-32.987-.008l-28.432-.01a5029.7 5029.7 0 0 1-16.932-.006c-5.31-.012-10.62-.004-15.93.02a803.78 803.78 0 0 1-5.81-.006c-17.505-.073-33.949 2.445-49.25 11.664z" fill="#fefefe"/><path d="M214.393 26.45l5.994-.03 16.141-.023 13.544-.017 31.994-.011 32.845-.055 28.343-.041 16.864-.03 15.88.005 5.775-.017c27.454-.221 51.28 9.134 71.04 28.269C456 57.707 456 57.707 456 60h2v2l2.048-.011 49.537-.196 23.957-.095 20.902-.074 11.048-.047c23.339-.179 42.33.21 60.184 16.943 9.342 9.97 14.455 22.7 14.444 36.307l.003 2.043-.01 6.752.001 4.85-.013 13.151-.008 13.75-.021 26.03-.022 29.637L640 272c-3.584-1.175-6.992-2.37-10.363-4.066l-2.414-1.21-2.536-1.286-2.642-1.33a805.24 805.24 0 0 1-19.576-10.24C596.9 250.877 592.237 248.984 586 248l.001-2.27-.081-54.763a6241.39 6241.39 0 0 1-.04-26.483l-.046-23.09-.014-12.219-.035-11.516.008-4.212c.065-7.57-.341-13.286-4.726-19.598-5.51-4.93-11.149-6.445-18.394-6.368l-2.421-.023-7.969-.004a2791.368 2791.368 0 0 0-21.269-.062l-16.247-.051-30.747-.074-35.014-.095L377 87v24l6.514-.027 60.74-.18 31.229-.095 27.222-.074 14.41-.047 13.573-.03 4.972-.024c15.659-.138 15.659-.138 22.34 4.477 3.872 4.346 4.616 8.12 4.602 13.777l.026 2.211.003 4.606.092 6.998c.108 12.442.108 12.442-3.45 16.85-4.491 4.302-9.463 4.807-15.48 4.799l-2.166.005c-2.39.003-4.778-.008-7.167-.019h-5.145a4058.89 4058.89 0 0 1-13.958-.024l-14.59-.016-27.624-.043-31.45-.043L377 164l.008 2.295.147 55.285.071 26.735.056 23.304.035 12.338.022 11.617.019 4.26.003 5.826.008 3.29c-.59 4.87-2.309 8.093-5.932 11.363-4.446 3.078-8.11 2.848-13.381 2.864l-2.81.02-9.23.041-3.182.013-16.67.044-17.224.085-13.24.038-6.348.035-8.89.017-2.645.039c-6.822-.058-10.296-1.981-15.164-6.862-3.161-5.269-2.17-12.08-2.107-18.006a1630.26 1630.26 0 0 1 .049-16.337l.032-12.48.085-23.618.087-26.895L261 164l-1.823.008-43.97.147-21.264.071-20.521.059-7.829.032-10.966.024-3.268.032c-5.905-.024-10.167-.475-15.359-3.373-6.203-6.366-5.246-13.327-5.295-21.79a320.441 320.441 0 0 0-.062-4.16 405.446 405.446 0 0 1-.069-6.042l-.044-3.636c.69-4.955 3.483-9.305 7.47-12.372 5.712-2.545 11.293-2.268 17.421-2.227h3.461l11.298.032 7.843.008 18.519.043 21.09.043L261 111V87l-54.347.132-25.235.064-22 .065-11.645.025a1003.33 1003.33 0 0 0-10.972.042c-1.974.012-3.947 0-5.921-.014-8.345.108-13.378 1.502-19.493 7.185-5.183 5.387-4.117 13.224-4.094 20.185l-.046 4.274-.054 11.19-.082 11.444L107 164c-2.935-.693-5.324-1.57-7.984-3.004l-2.31-1.233-2.456-1.325-18.375-9.5A3713.54 3713.54 0 0 1 68 145l-2.278-1.138a862.186 862.186 0 0 1-6.972-3.55l-2.168-1.08C50.559 136.105 47.216 132.524 45 126c-.267-2.711-.267-2.711-.29-5.673l-.04-3.379-.006-3.624-.02-3.755-.015-7.86-.04-8.027-.05-11.608-.043-3.605c.043-8.036.903-13.845 6.694-19.673 3.807-2.433 7.741-4.502 11.775-6.534l2.635-1.345a3196.11 3196.11 0 0 1 8.337-4.23l5.502-2.802A4125.55 4125.55 0 0 1 92.61 37.21l6.676-3.415 3.76-1.921 3.21-1.652c4.623-2.06 7.887-2.314 12.734-.463 6.547 2.936 12.818 6.296 19.08 9.793 4.616 2.499 8.556 4.546 13.93 4.447 2.82-1.073 5.27-2.577 7.812-4.187l4.27-2.524 2.057-1.218c14.903-8.58 31.521-9.67 48.254-9.62z" fill="#fdfcfc"/><path d="M97.707 179.369l4.52-.022 12.248.014 12.834.003 21.555.04 24.894.014 23.975.008 10.19-.002 12.01.032h4.397c13.847-.06 13.847-.06 19.67 4.544 3.063 4.186 4.12 7.794 4.177 12.927l.039 3.035.022 3.276.025 3.375.032 7.073.105 10.804.026 6.873.053 3.258c-.018 6.133-.368 9.72-4.479 14.379-4.385 3.957-7.413 5.126-13.258 5.12l-3.302.004-3.622-.01h-3.814a5107.07 5107.07 0 0 1-10.357-.013l-10.822-.008-20.495-.021-23.333-.022L107 254l.236 30.59.11 14.205.117 13.713.035 5.227.07 7.332-.005 2.173c.102 5.479 1.415 9.568 5.156 13.623l1.781 1.45 1.781 1.488c2.87 2.001 5.398 2.325 8.79 2.338l2.52.016 2.767.003 2.94.015 9.798.032 7.007.03 19.058.068 17.888.068 35.435.132 34.423.125 2.143.008 10.643.041L358 347l.145 10.16.058 2.897c.048 5.996-.112 10.603-4.202 15.329-2.185 1.763-4.354 3.063-6.837 4.376l-2.951 1.567-19.371 9.988c-8.047 4.113-15.935 8.396-23.71 13.006C295.34 407.424 289.56 409.36 283 408c-6.276-2.486-12.24-5.864-18.101-9.193l-2.083-1.135-1.857-1.044c-3.508-1.124-6.16-.024-9.365 1.564l-2.524 1.511-2.876 1.704-3.069 1.843-6.465 3.82-3.335 1.974a1177.084 1177.084 0 0 1-15.763 9.081l-2.81 1.61c-12.02 6.814-22.143 10.573-36.058 10.54l-3.354.015-10.926.01-7.629.014-15.973.002c-6.132-.006-12.264.006-18.397.027l-17.777.02-7.528.015c-3.515.013-7.03.006-10.545-.006l-3.112.023c-15.098-.109-27.16-6.456-38.004-16.743-3.573-3.869-6.118-7.95-8.449-12.652l-1.75-3.5c-3.014-8.44-3.542-16.65-3.509-25.552l-.01-3.523.003-11.448-.005-8.01.01-16.759-.003-19.287-.006-16.646-.003-9.903.014-11.061-.012-3.25c.092-16.565 3.983-30.387 15.458-42.686C54.284 222.625 63.945 216 74 216l-.048-2.307-.14-10.38-.076-3.631-.029-3.506-.048-3.222c.582-5.046 3.229-8.7 7.17-11.884 5.124-2.525 11.284-1.75 16.878-1.701z" fill="#fefefd"/><path d="M455 57l53.305-.155 24.754-.071 21.591-.056 11.418-.035 10.778-.022 5.779-.034c17.237.06 32.601 4.906 45.188 17.037 6.193 6.614 11.428 13.487 14.312 22.148l1.008 2.958c2.399 8.936 2.038 18.105 2.072 27.285l.03 4.88.068 13.194.076 13.81.138 26.125.16 29.754L646 275l1.984 1.022 9.016 4.666 3.121 1.607c16.868 8.756 16.868 8.756 20.817 14.767l1.714 2.536c2.592 4.62 2.501 9.054 2.51 14.256l.014 2.387.027 7.806.017 5.44.02 11.41.058 14.579.026 11.242.024 5.372.008 7.538.028 2.217c-.064 8.036-2.8 14.395-8.283 20.28-3.772 3.366-8.058 5.587-12.538 7.875l-2.955 1.558L653 416l-2.26 1.157a814.01 814.01 0 0 1-11.66 5.822l-11.893 5.896-2.524 1.256a707.085 707.085 0 0 0-20.397 10.646c-8.768 4.692-16.961 7.16-26.903 4.524-3.215-1.263-6.29-2.732-9.363-4.301l-2.241-1.14-13.93-7.27a1355.847 1355.847 0 0 0-15.095-7.836l-2.168-1.112-8.568-4.382-22.764-12.022-2.027-1.098c-5.11-2.853-8.62-5.887-11.207-11.14l-1.547-2.7c-2.555-6.041-1.82-12.769-1.746-19.202a1966.978 1966.978 0 0 1 .087-15.71l.06-11.624L487 323l-3.149.027-29.397.18-15.113.095-14.588.078a724.58 724.58 0 0 0-5.562.043l-7.799.031-2.315.044c-5.185-.04-8.079-1.239-12.077-4.498-3.665-4.16-5.116-6.483-5.193-11.981l-.049-3.147-.108-14.282-.082-7.528a977.23 977.23 0 0 1-.091-10.855l-.07-3.385c.016-5.71.36-9.79 3.834-14.427 5.59-4.433 11.128-4.833 17.98-4.783l2.717-.016 8.843.006a3015.724 3015.724 0 0 1 19.096.007l16.534-.01h12.745l6.095-.008 8.528.02 2.526-.018c5.869.064 10.947.913 15.461 5.01 3.924 6.143 3.824 11.765 3.546 18.897l-.068 3.36A589.57 589.57 0 0 1 509 284l14-7 .148-3.543.227-4.644.094-2.33c.252-4.889.495-9.237 3.933-13.03 5.207-4.08 8.965-4.656 15.41-4.703l2.12-.063c6.052-.045 10.01 1.417 14.443 5.5L561 256c4.313-1.326 8.125-3.05 12.125-5.125 7.48-3.378 13.204-4.994 21.141-2.028 6.415 2.712 12.574 5.912 18.734 9.153l5.297 2.75a955.477 955.477 0 0 1 11.384 6.037l6.464 3.289 2.187 1.092L640 272l-.236-63.579-.11-29.523-.103-25.742-.049-13.62-.056-12.842a698.155 698.155 0 0 1-.011-4.693c.013-17.183-3.753-32.031-15.958-44.747-10.354-9.422-23.314-14.32-37.286-14.412l-3.441-.03-3.732-.017-3.963-.03-10.722-.068-11.219-.076-21.227-.138-24.174-.16L458 62v-2h-2l-1-3z" fill="#28a9e1"/><path d="M279.112 46.791l2.863-.03 9.412-.07 3.244-.02 17.005-.076 14.076-.103 16.988-.1 6.472-.057 9.069-.032 2.691-.06c5.602.065 8.582 1.237 12.685 5.078 2.687 3.261 3.633 5.974 3.627 10.184l.011 2.736-.019 2.994.004 3.19-.025 10.617a8363.036 8363.036 0 0 1-.05 28.263l-.033 12.904a25434.042 25434.042 0 0 1-.125 42.669l-.009 2.324-.008 2.326-.078 37.331-.091 38.329a5481.76 5481.76 0 0 0-.046 21.52l-.066 20.235-.009 7.433-.047 10.135.028 2.98c-.07 4.37-.21 7.526-2.972 11.04-3.603 3.284-5.924 4.713-10.794 4.736l-2.438.026-2.648-.002-2.81.02-9.199.025-6.396.02-13.412.015-17.176.061-13.213.025-6.332.027-8.86.002-2.637.034c-5.41-.056-8.532-.88-12.794-4.52-2.548-2.89-3.376-4.67-3.404-8.515l-.042-2.743v-3.002l-.035-3.198-.062-10.645-.065-7.617-.129-20.722-.072-12.941a17512.34 17512.34 0 0 1-.191-35.84l-.01-2.316a668975.916 668975.916 0 0 1-.028-6.98l-.01-2.334a9644.471 9644.471 0 0 0-.236-37.434 9253.485 9253.485 0 0 1-.228-38.443l-.135-21.58-.093-20.3a742.295 742.295 0 0 0-.057-7.45l-.027-10.172-.067-2.975c.086-6.462 1.675-9.698 6.193-14.324 3.828-3.312 7.997-2.646 12.81-2.678z" fill="#ef6d55"/><path d="M97.707 179.369l4.52-.022 12.248.014 12.834.003 21.555.04 24.894.014 23.975.008 10.19-.002 12.01.032h4.397c13.847-.06 13.847-.06 19.67 4.544 3.063 4.186 4.12 7.794 4.177 12.927l.039 3.035.022 3.276.025 3.375.032 7.073.105 10.804.026 6.873.053 3.258c-.018 6.133-.368 9.72-4.479 14.379-4.657 4.202-7.819 5.124-14.008 5.14l-3.807.018-4.184.003-4.4.015-11.964.024-7.476.012-23.398.027-26.997.05-20.874.034-12.464.025-11.73.01a559.79 559.79 0 0 0-4.298.013c-13.61.089-13.61.089-19.4-3.371-3.864-4.17-5.128-6.62-5.098-12.227l.01-3.125.025-3.273.014-3.297L74 221c-12.58 3.863-23.978 10.853-30.465 22.668-4.567 9.598-5.835 17.948-5.841 28.477l-.026 3.625-.035 9.788-.017 6.14-.042 21.487-.075 19.914-.05 17.186-.039 10.224C37.276 379.442 37.233 396.391 51 411c8.285 7.343 18.405 13.066 29.701 13.16l2.854.031 3.11.018 3.293.03 10.808.07 3.74.02 17.6.07 18.2.109 19.583.1 7.43.057c18.423.208 31.986-1.952 47.868-11.79l4.766-2.848 2.463-1.485 14.021-8.104 2.71-1.554 2.537-1.45 2.236-1.28a67.831 67.831 0 0 1 4.287-2.181c1.969-.847 1.969-.847 2.793-2.973l-2.305-.637c-5.204-1.92-9.952-4.53-14.82-7.175l-2.996-1.58C224.112 377.94 220.49 374.98 217 368v-21h141c0 23.765 0 23.765-3.999 28.386-2.185 1.763-4.354 3.063-6.837 4.376l-2.951 1.567-19.371 9.988c-8.047 4.113-15.935 8.396-23.71 13.006C295.34 407.424 289.56 409.36 283 408c-6.276-2.486-12.24-5.864-18.101-9.193l-2.083-1.135-1.857-1.044c-3.508-1.124-6.16-.024-9.365 1.564l-2.524 1.511-2.876 1.704-3.069 1.843-6.465 3.82-3.335 1.974a1177.084 1177.084 0 0 1-15.763 9.081l-2.81 1.61c-12.02 6.814-22.143 10.573-36.058 10.54l-3.354.015-10.926.01-7.629.014-15.973.002c-6.132-.006-12.264.006-18.397.027l-17.777.02-7.528.015c-3.515.013-7.03.006-10.545-.006l-3.112.023c-15.098-.109-27.16-6.456-38.004-16.743-3.573-3.869-6.118-7.95-8.449-12.652l-1.75-3.5c-3.014-8.44-3.542-16.65-3.509-25.552l-.01-3.523.003-11.448-.005-8.01.01-16.759-.003-19.287-.006-16.646-.003-9.903.014-11.061-.012-3.25c.092-16.565 3.983-30.387 15.458-42.686C54.284 222.625 63.945 216 74 216l-.048-2.307-.14-10.38-.076-3.631-.029-3.506-.048-3.222c.582-5.046 3.229-8.7 7.17-11.884 5.124-2.525 11.284-1.75 16.878-1.701z" fill="#f7961f"/><path d="M460 62l50.803-.207 23.593-.095 20.586-.074 10.88-.047c23.208-.18 42.065.309 59.814 16.943 9.342 9.97 14.455 22.7 14.444 36.307l.003 2.043-.01 6.752.001 4.85-.013 13.151-.008 13.75-.021 26.03-.022 29.637L640 272c-3.584-1.175-6.992-2.37-10.363-4.066l-2.414-1.21-2.535-1.286-2.643-1.33a805.24 805.24 0 0 1-19.576-10.24C596.9 250.877 592.237 248.984 586 248l.001-2.27-.081-54.763-.04-26.483-.046-23.09-.014-12.219-.035-11.516.008-4.212c.065-7.565-.17-13.596-4.992-19.69-5.801-5.66-11.88-6.347-19.705-6.303l-2.9-.031-9.415-.032-6.557-.05-17.202-.08-17.577-.1A9734.867 9734.867 0 0 0 473 87l-.87-1.68-3.942-7.57-1.37-2.645-1.338-2.558-1.221-2.349c-1.227-2.256-1.227-2.256-2.914-4.357C460 64 460 64 460 62z" fill="#fafdfe"/><path d="M214.393 26.45l5.994-.03 16.141-.023 13.544-.017 31.994-.011 32.845-.055 28.343-.041 16.864-.03 15.88.005 5.775-.017c27.454-.221 51.28 9.134 71.04 28.269C456 57.707 456 57.707 456 60h2v2h2a109.046 109.046 0 0 1 4.375 6.875l1.222 2.057C468.61 76.098 471.09 81.323 473 87h-6l-1.434-3.078C455.353 62.455 440.186 47.36 418 38c-9.515-3.376-18.404-5.15-28.479-5.147l-2.508-.011-8.28-.019-5.955-.02-19.524-.041-6.74-.013-31.68-.041-36.477-.077-28.254-.048-16.845-.036-15.87-.018c-1.93 0-3.86-.005-5.79-.02-14.903-.1-28.92 1.219-42.286 8.491l-1.966 1A53.6 53.6 0 0 0 157 49l3.543 1.793 4.644 2.395 2.33 1.173c6.453 3.35 11.003 6.666 13.877 13.611 1.084 3.629.919 7.211.793 10.966l-.04 2.36A476.89 476.89 0 0 1 182 87l-2.262.004-21.184.128-10.888.064-10.524.077-5.935.008c-7.346.118-12.691.606-18.207 5.719l-1.564 1.372c-5.12 5.604-4.166 13.18-4.143 20.312l-.046 4.274-.054 11.19-.082 11.444L107 164c-2.935-.693-5.324-1.57-7.984-3.004l-2.31-1.233-2.456-1.325-18.375-9.5A3713.54 3713.54 0 0 1 68 145l-2.278-1.138a862.186 862.186 0 0 1-6.972-3.55l-2.168-1.08C50.559 136.105 47.216 132.524 45 126c-.267-2.711-.267-2.711-.29-5.673l-.04-3.379-.006-3.624-.02-3.755-.015-7.86-.04-8.027-.05-11.608-.043-3.605c.043-8.036.903-13.845 6.694-19.673 3.807-2.433 7.741-4.502 11.775-6.534l2.635-1.345a3196.11 3196.11 0 0 1 8.337-4.23l5.502-2.802A4125.55 4125.55 0 0 1 92.61 37.21l6.676-3.415 3.76-1.921 3.21-1.652c4.623-2.06 7.887-2.314 12.734-.463 6.547 2.936 12.818 6.296 19.08 9.793 4.616 2.499 8.556 4.546 13.93 4.447 2.82-1.073 5.27-2.577 7.812-4.187l4.27-2.524 2.057-1.218c14.903-8.58 31.521-9.67 48.254-9.62z" fill="#ef6d55"/><path d="M377 113l67.41-.104 31.3-.047 27.277-.037 14.445-.023 13.595-.015 4.991-.012 6.813-.003 3.852-.005c6.161.457 9.272 2.64 13.317 7.246 1.79 5.37 1.227 11.13 1.25 16.75l.063 3.828c.05 12.07.05 12.07-3.313 17.422-2.806 2.795-4.407 3.913-8.364 4.492l-3.919-.011-2.19.01c-2.418.007-4.834-.015-7.25-.037a2285.653 2285.653 0 0 1-19.323-.049l-14.759-.032-27.942-.085-31.814-.087L377 162v-49z" fill="#14477b"/><path d="M413.22 248.612l2.718-.016 8.843.006a3015.726 3015.726 0 0 1 19.096.007l16.534-.01h12.745l6.095-.008 8.528.02 2.526-.018c5.873.064 10.906.931 15.461 4.975 4.133 6.37 3.81 12.533 3.547 19.932l-.069 3.648L509 286a4387.21 4387.21 0 0 1-4.812 1.937l-2.708 1.09A112.154 112.154 0 0 1 496 291v3a90.223 90.223 0 0 1-4 4c-4.656 5.518-4.278 11.486-4.605 18.42-.293 5.478-.293 5.478-1.395 6.58a181.82 181.82 0 0 1-7.637.177l-2.425.02-7.981.041-2.75.013-14.414.044-14.886.085-11.446.038-5.486.035a629.47 629.47 0 0 1-7.69.017l-2.282.039c-5.152-.05-8.029-1.28-12.003-4.509-3.665-4.16-5.116-6.483-5.193-11.981l-.049-3.147-.108-14.282-.082-7.528a977.23 977.23 0 0 1-.091-10.855l-.07-3.385c.016-5.71.36-9.79 3.834-14.427 5.59-4.433 11.128-4.833 17.98-4.783z" fill="#96c742"/><path d="M147.84 112.88l3.022-.004 3.31.01h3.49l11.443.016 7.924.005 18.742.021 21.337.022L261 113v49l-46.575.31-21.627.143-18.855.112-9.98.07-11.153.046-3.324.066c-6.2-.05-9.76-.786-14.272-5.165-3.706-4.83-2.438-11.973-2.454-17.778l-.073-6.491-.015-4.149-.028-3.798c.479-4.525 1.956-7.141 5.356-10.116 3.325-2.078 6.014-2.374 9.84-2.37z" fill="#14477a"/><path d="M145.092 270.74l2.442-.022 2.653.007 2.815-.015 9.213-.01 6.404-.014 13.424-.002 17.203-.034 13.226-.013 6.343-.015 8.868.006 2.647-.023c5.742.05 8.924 1.14 13.42 4.832 4.065 5.082 2.476 13.796 2.5 19.875l.062 3.96c.052 12.605.052 12.605-3.312 17.728-5.073 4.293-8.963 4.577-15.307 4.518l-2.78.02c-3.024.018-6.046.007-9.07-.007l-6.32.012c-4.412.006-8.823-.003-13.234-.022-5.65-.022-11.298-.01-16.948.015h-13.048c-2.083-.003-4.166 0-6.248.01-2.913.01-5.825-.006-8.738-.028l-2.598.024c-5.377-.076-8.436-.983-12.709-4.542-4.492-5.545-3.485-12.378-3.446-19.147l-.052-6.84.002-4.384-.006-3.998c.586-4.242 1.766-6.366 4.502-9.631 2.779-1.696 4.855-2.251 8.092-2.26z" fill="#13477a"/><path d="M500.478 179.839l3.399-.03 3.674-.012 3.778-.017 7.92-.02 8.11-.041 11.692-.047 3.656-.038c10.902.03 10.902.03 15.293 3.366 3.897 4.469 4.596 8.277 4.531 14.031l.012 2.286a387.56 387.56 0 0 1-.022 4.76l.026 7.247-.016 4.645.025 2.169c-.095 5.1-1.261 7.995-4.556 11.862-5.5 5.264-11.665 4.58-18.844 4.531l-3.765.012a1300.5 1300.5 0 0 1-9.876-.035 578.89 578.89 0 0 0-6.039.013l-11.632.01-3.628.025c-7.918-.09-11.772-1.241-17.558-6.81-2.151-3.563-2.235-6.636-2.19-10.68l-.01-2.29.02-4.777-.025-7.274.016-4.659-.025-2.178c.11-5.98 2.318-9.292 6.119-13.7 3.018-2.494 6.186-2.323 9.915-2.35z" fill="#2aa9e0"/><path d="M377 57l27.513-.26 12.775-.117 12.333-.097 4.701-.055 6.593-.039 3.788-.033c7.047 1.285 11.098 8.991 15.137 14.453C467 81.288 467 81.288 467 87h-90v24l6.514-.027 60.74-.18 31.229-.095 27.222-.074 14.41-.047 13.573-.03 4.972-.024c15.659-.138 15.659-.138 22.34 4.477 3.872 4.346 4.616 8.12 4.602 13.777l.026 2.211.003 4.606.092 6.998c.108 12.442.108 12.442-3.45 16.85-4.491 4.302-9.463 4.807-15.48 4.799l-2.166.005c-2.39.003-4.778-.008-7.167-.019h-5.145a4058.89 4058.89 0 0 1-13.958-.024l-14.59-.016-27.624-.043-37.331-.049L377 164v148h-1a193403.864 193403.864 0 0 1-.056-96.99l-.02-30.265-.018-35.215-.012-18.61c-.057-50.3-.057-50.3 1.106-73.92zm0 56v49l68.532.26 31.82.117 27.734.093 14.685.059 13.824.037 5.072.03 6.93.005 3.916.014c4.618-.815 6.208-2.309 9.487-5.615 2.969-6.357 2.33-13.187 2.313-20.063l.048-3.837.002-3.698.01-3.36c-.636-5.195-3.447-8.711-7.373-12.042-3.624-1.292-7.236-1.123-11.049-1.12l-2.15-.003a2423.92 2423.92 0 0 0-7.136.01l-5.115-.001-13.89.013-14.513.008-27.486.021-31.291.022L377 113z" fill="#f8fbfc"/><path d="M314 157h10l2 4c3.397.76 3.397.76 7 1 3.188.375 4.177 1.138 6.813 3.188C342 168 342 168 341.688 171.063L341 174c.866 2.834 1.457 3.71 4.082 5.11L347 180c.3 3.054.439 5.956 0 9a282.832 282.832 0 0 1-5 5v4c0 4 0 4-2.063 7-3.626 2.47-5.632 2.235-9.937 2-2.832.944-3.728 1.537-5.25 4.125C323 213 323 213 319.125 213.563c-3.532-.156-4.054-.5-6.875-3L310 208c-3.051-1.256-3.768-1.077-7 0-2.81-1.517-5.03-3.493-7-6 .188-3.125.188-3.125 1-6-.887-2.822-1.528-3.736-4.125-5.188-1.875-1.812-1.875-1.812-2.133-4 .007-2.283.086-4.536.258-6.812l1.938-.875c2.214-.953 2.214-.953 3.062-3.125l-.313-3.75c-.037-3.458.554-5.17 2.875-7.75 2.648-2.328 3.402-2.497 7.125-2.813L309 162l3-1 2-4Z" fill="#fdf7f4"/><path d="M73 217c.688 2.063.688 2.063 1 4l-2.02.594c-11.76 3.816-22.397 11.06-28.445 22.074-4.567 9.598-5.835 17.948-5.841 28.477l-.026 3.625-.035 9.788-.017 6.14-.042 21.487-.075 19.914-.05 17.186-.039 10.224C37.276 379.442 37.233 396.391 51 411c8.35 7.4 18.479 13.071 29.847 13.158l2.949.03 3.215.017 3.4.03 11.136.081 7.718.063 18.242.138 20.771.16L191 425l-1 2H76v2l3 1c-14.38-1.53-26.18-8.45-36-19-8.797-12.113-11.314-24.368-11.259-39.052l-.01-3.523.003-11.448-.005-8.01.01-16.759-.003-19.287-.006-16.646-.003-9.903.014-11.061-.012-3.25c.092-16.565 3.983-30.387 15.459-42.686C53 223.845 64.584 214.195 73 217z" fill="#ed962a"/><path d="M157 197c3.25-.25 3.25-.25 7 0a90.488 90.488 0 0 1 4 4h5c1.75 1.063 1.75 1.063 3 3l.5 3.563.5 3.437 3 2c.188 3.625.188 3.625 0 7l-3 1-.402 2.152-.536 2.786-.527 2.777C175 231 175 231 174 232a85.688 85.688 0 0 1-4.563.563l-2.503.253L165 233l-1 3h-7l-1-3-3.813-.313c-2.446-.324-3.978-.566-6.125-1.812C145 229 145 229 144.5 225.437L144 222l-3-2c-.375-3.5-.375-3.5 0-7l3-2 1-7c1.626-2.206 2.572-2.903 5.262-3.512l2.425-.175 2.45-.2L157 200v-3z" fill="#fef8ea"/><path d="M447 266c3.688-.25 3.688-.25 7 0l1 4 3.813-.188c2.594-.127 3.765-.111 5.906 1.407 1.597 2.22 1.772 3.756 1.969 6.469l.199 2.449L467 282l3 1c.188 2.875.188 2.875 0 6l-3 2-1 7c-1.063 1.875-1.063 1.875-3 3-2.681.535-5.264.776-8 1l-1 3h-7l-1-3-2.152-.402-2.786-.536-2.777-.527C436 300 436 300 435 299a85.688 85.688 0 0 1-.563-4.563l-.253-2.503L434 290l-3-1c-.188-2.813-.188-2.813 0-6l3-3 .5-3.5c.5-3.5.5-3.5 1.688-5.438C438 270 438 270 441 270.063l3-.062 1.438-2 1.562-2z" fill="#f7fded"/><path d="M455 57l53.305-.155 24.754-.071 21.591-.056 11.418-.035 10.778-.022 5.779-.034c17.237.06 32.601 4.906 45.188 17.037 7.46 7.966 14.683 17.098 15.375 28.398L643 104l-3-1-1 3-.848-2.676c-5.488-16.43-13.813-28.055-29.609-36.035-10.011-3.642-19.727-4.734-30.32-4.721l-3.966-.031-10.634-.043-11.162-.06-21.079-.095-24.022-.117A23445.11 23445.11 0 0 0 458 62v-2h-2l-1-3z" fill="#2aa9db"/><path d="M376 86h1v25l6.514-.027 60.74-.18 31.229-.095 27.222-.074 14.41-.047 13.573-.03 4.972-.024c15.659-.138 15.659-.138 22.34 4.477 3.872 4.346 4.616 8.12 4.602 13.777l.026 2.211.003 4.606.092 6.998c.108 12.442.108 12.442-3.45 16.85-4.491 4.302-9.463 4.807-15.48 4.799l-2.166.005c-2.39.003-4.778-.008-7.167-.019h-5.145a4058.89 4058.89 0 0 1-13.958-.024l-14.59-.016-27.624-.043-37.331-.049L377 164v148h-1V86zm1 27v49l68.532.26 31.82.117 27.734.093 14.685.059 13.824.037 5.072.03 6.93.005 3.916.014c4.618-.815 6.208-2.309 9.487-5.615 2.969-6.357 2.33-13.187 2.313-20.063l.048-3.837.002-3.698.01-3.36c-.636-5.195-3.447-8.711-7.373-12.042-3.624-1.292-7.236-1.123-11.049-1.12l-2.15-.003a2423.92 2423.92 0 0 0-7.136.01l-5.115-.001-13.89.013-14.513.008-27.486.021-31.291.022L377 113z" fill="#a5a4b2"/><path d="M261 86h1v227h-1V164l-77.037.27-10.953.016-7.304.03-11.08.025-3.273.032c-5.903-.024-10.163-.476-15.353-3.373-6.203-6.366-5.246-13.327-5.295-21.79a320.441 320.441 0 0 0-.062-4.16 405.446 405.446 0 0 1-.069-6.042l-.044-3.636c.69-4.955 3.483-9.305 7.47-12.372 5.712-2.545 11.293-2.268 17.421-2.227h3.461l11.298.032 7.843.008 18.519.043 21.09.043L261 111V86zm-125.813 31.5c-3.729 4.71-2.412 11.976-2.427 17.696l-.072 6.492-.016 4.148-.028 3.798c.498 4.71 2.149 7.013 5.244 10.482 4.756 2.88 9.238 2.41 14.695 2.338l3.55.002 11.605-.065 8.05-.018 19.018-.085 21.657-.087L261 162v-49l-45.845-.155a7995.23 7995.23 0 0 1-21.287-.071l-20.541-.059-7.84-.032-10.974-.024-3.278-.032c-6.43.026-10.93.637-16.048 4.873z" fill="#afaebe"/><path d="M324 169c3.438 1.813 3.438 1.813 6 4l1.75 1.375c2.853 3.71 3.46 7.498 3.188 12.063-.67 4.665-2.43 8.363-5.938 11.562-5.208 2.595-10.296 2.785-16 2-4.453-1.8-6.566-4.243-8.938-8.375-1.49-5.087-1.744-8.73.063-13.75 5.018-7.694 10.95-9.89 19.875-8.875Z" fill="#eb6f58"/><path d="M522 190c2.875-.188 2.875-.188 6 0l2 3h2.438c2.562 0 2.562 0 4.25 1.063 1.877 2.77 2.478 5.72 3.312 8.937l1 1v6l-2 1-1 7c-2 2-2 2-5.563 2.5L529 221l-1 2h-7l-1-2-3.438-.875C513 219 513 219 511.625 217.125a72.686 72.686 0 0 1-1.125-4.313L510 211l-2-1v-6l3-1 .25-3.313c.75-3.687.75-3.687 2.5-5.625 2.604-1.23 4.403-1.3 7.25-1.062l1-3z" fill="#e8fafd"/><path d="M203 27l75.969-.31 35.28-.143 30.776-.112a2434.46 2434.46 0 0 0 16.271-.07l15.368-.044a479.97 479.97 0 0 0 5.59-.036c27.234-.324 50.993 9.268 70.558 28.215C456 57.707 456 57.707 456 60h2v2h2a109.046 109.046 0 0 1 4.375 6.875l1.222 2.057C468.61 76.098 471.09 81.323 473 87h-6l-1.434-3.078C455.353 62.455 440.186 47.36 418 38c-6.555-2.326-13.057-4.354-20-5v-1l5-1c-3.3-3.3-12.798-2.152-17.213-2.158l-2.384-.015-7.844-.032-5.65-.03-15.289-.068-15.995-.076-30.27-.138-34.468-.16L203 28v-1z" fill="#dc705d"/><path d="M194 27l77.816.34 36.131.157 31.494.14 16.674.072 15.7.071 5.756.023 7.874.039 2.288.003c4.835.037 9.508.257 14.267 1.155l2 3H200v-3l-6-1v-1z" fill="#f1806c"/><path d="M150.474 268.467l2.836-.027a899.03 899.03 0 0 1 9.249-.006 2429.374 2429.374 0 0 1 19.952-.01l17.283-.042 13.314-.012 6.371-.02 8.917.019 2.644-.036c6.204.097 9.252 1.61 13.96 5.667 2.704 3.48 2.323 7.596 2.336 11.836l.02 2.294.015 4.796.078 7.3.012 4.672.043 2.189c-.046 5.137-1.178 8.023-4.504 11.913-5.127 4.282-8.995 4.582-15.383 4.533l-2.806.027-9.15.006a2378.807 2378.807 0 0 1-19.744.01c-5.702-.017-11.402.007-17.102.042l-13.175.012-6.304.02c-2.942.018-5.882.004-8.824-.019l-2.615.036c-5.893-.093-9.64-1.517-13.897-5.667-4.181-6.211-3.487-13.03-3.446-20.222l-.052-6.813.002-4.371-.006-3.979c.751-5.411 2.917-8.287 7.056-11.755 4.484-2.42 7.908-2.43 12.92-2.393zm-16.83 8.318c-.932 3.205-.95 6.34-.945 9.649l-.013 2.166a677.704 677.704 0 0 0-.002 4.526l-.045 6.9-.002 4.408-.028 2.07c.042 4.366.624 7.095 3.391 10.496 5.118 4.261 8.94 4.578 15.307 4.518l2.78.02 9.07-.007 6.32.012 13.234-.022 16.948.015h13.048l6.248.01 8.738-.028 2.598.024c5.365-.076 8.468-.953 12.709-4.542 4.281-6.544 3.406-14.05 3.313-21.625l.01-3.969c.15-9.53.15-9.53-4.26-17.656-4.184-3.55-8.921-2.911-14.12-2.927l-2.81-.02-9.215-.041-3.178-.013-16.652-.044a3444.85 3444.85 0 0 1-17.2-.085l-13.226-.038a980.807 980.807 0 0 1-6.34-.035 839.222 839.222 0 0 0-8.876-.017l-2.64-.039c-5.992.051-10.337 1.259-14.162 6.294z" fill="#88b0d3"/><path d="M542.875 250.625l2.395-.074c5.346-.027 8.588.748 12.73 4.449.656 2.14.656 2.14 1 4l-10.875 5.688-3.07 1.607A981.264 981.264 0 0 1 526 276l-.25-8.125-.102-2.305c-.092-5.336.72-8.392 4.352-12.57 3.641-2.903 8.422-2.368 12.875-2.375z" fill="#12487b"/><path d="M39 392c2 3 2 3 3.688 6.625 5.915 11.809 14.794 19.044 27.085 23.648 3.786 1.236 7.078 1.855 11.074 1.885l2.949.03 3.215.017 3.4.03 11.136.081 7.718.063 18.242.138 20.771.16L191 425l-1 2H76v2l3 1c-14.367-1.528-26.2-8.442-36-19-6-8.355-6-8.355-6-12h2l1 3 2 1-1-5h-2v-6z" fill="#e79a38"/><path d="M407.456 179.823l3.46-.039 3.756-.022 3.85-.025 8.08-.032 10.322-.085 9.873-.046 3.732-.053c10.875.028 10.875.028 15.471 4.479 3.765 4.448 4.607 8.093 4.566 13.777l.02 2.211-.01 4.606.059 6.998c.068 12.418.068 12.418-2.795 16.787-6.682 6.167-12.723 6.076-21.43 6.055l-3.69.015c-2.572.007-5.143.006-7.714-.003-3.926-.008-7.851.02-11.777.052-2.502.002-5.004.001-7.506-.002l-3.546.034c-6.62-.056-10.81-.547-16.177-4.53-5.395-5.755-4.22-13.314-4.24-20.735l-.073-6.181c-.049-12.566-.049-12.566 3.313-18.084 4.246-3.936 6.75-5.121 12.456-5.177zM395 188c-2.284 4.568-1.312 11.275-1.35 16.348a351.12 351.12 0 0 1-.082 4.783l-.091 6.916-.07 2.14c.017 3.748.55 6.256 2.813 9.185 4.172 3.944 7.652 4.875 13.317 4.903l3.287.029 3.52-.003 3.642.013 7.615.002 11.653.045 7.402.002 3.52.028 3.287-.019 2.881.002c4.525-.637 7.044-2.643 9.93-6.09 2.905-5.529 2.393-11.352 2.357-17.451-.006-2.262.041-4.519.092-6.78.245-8.842.245-8.842-3.637-16.526-3.97-3.252-5.513-3.657-10.526-3.736l-3.45-.058-15.657-.138a704.891 704.891 0 0 1-8.255-.103 891.817 891.817 0 0 0-11.897-.113l-3.716-.084c-7.315.017-11.93.748-16.585 6.705z" fill="#a8bfce"/><path d="M202 28v1l193 1v1l-3.003.007-72.494.229-35.058.11-30.572.103-16.174.049-15.254.056-5.569.011c-19.601-.013-43.559 2.23-58.747 16.15L157 49l2 2-4-1v-3l-3.25.125c-3.407-.114-4.957-.338-7.75-2.125l1-2 3.012.762c5.166.308 7.55-1.256 11.8-3.95a833.738 833.738 0 0 1 4.254-2.519l2.056-1.217C177.163 29.753 189.406 27.397 202 28z" fill="#de6951"/><path d="M454 275c2.92 1.396 4.722 2.722 7 5 .568 3.712.541 7.286 0 11-2.202 2.897-3.786 4.393-7 6-7.759.431-7.759.431-11-2-3.154-3.717-3.512-7.134-3.363-11.844.542-3.22 2.025-4.956 4.363-7.156 3.189-1.594 6.53-1.386 10-1Z" fill="#98c646"/><path d="M164 206c3.586 1.637 4.793 2.69 7 6 .821 4.222 1.126 8.305-1.32 11.988-2.998 2.816-5.172 3.914-9.243 4.7-4.531-.907-6.189-2.44-9.437-5.688-1.262-2.525-1.099-4.312-1.063-7.125l.028-2.758L150 211h2l1-3c3.706-2.47 6.702-2.554 11-2Z" fill="#f49722"/><path d="M377 57l27.565-.155 12.799-.071 12.352-.059 4.712-.032 6.6-.024 3.796-.02c3.386.385 4.814.94 7.176 3.361v2h-75v-5z" fill="#3dabdc"/><path d="M642 98l3 1c2.715 8.205 2.268 16.716 2.227 25.26v4.91l-.024 13.263-.016 13.885-.043 26.264-.043 29.913L647 274l-2 1-.01-2.543-.278-61.375-.134-29.681-.12-25.882-.061-13.693-.064-12.912a1071.53 1071.53 0 0 1-.017-4.717c-.014-8.905-.493-17.453-2.316-26.197z" fill="#e8fefe"/><path d="M643 102c1.138 3.625 1.108 7 1.082 10.783l-.01 2.065-.05 6.844-.03 4.908-.093 13.326-.092 13.925-.18 26.37-.203 30.022L643 272h-2V108h-2l1-5 3-1z" fill="#25b0ec"/><path d="M358 347h129v41h-2v-39l-11.335.032-37.012.072-22.448.047-19.563.037-10.36.023-11.559.016-3.48.022-3.175-.008-2.762.005C361 349 361 349 358 347z" fill="#d7f1fc"/><path d="M240 248l3 1c-3.124 3.339-5.004 4.91-9.712 5.123l-3.343-.003-3.837.004-4.218-.01h-4.435c-4.016 0-8.032-.006-12.049-.013l-12.588-.008-23.841-.021-27.142-.022L86 254v-1c16.356-1.037 32.703-1.21 49.086-1.303l11.107-.076 20.929-.138 23.87-.16A78329.2 78329.2 0 0 1 240 251v-3z" fill="#c78d3f"/><path d="M455 57l53.875-.104 25.014-.047 21.796-.037 11.547-.023 10.858-.015 5.903-.023 3.527.008 3.079-.005C593 57 593 57 595 59l-139 1-1-3z" fill="#4eacce"/><path d="M529 198c2.502 1.876 3.62 3.239 5 6 .43 3.872.317 5.525-1.875 8.813-2.717 2.796-3.521 3.13-7.438 3.5-4.381-.372-5.847-.971-8.687-4.313-1.055-2.755-1.36-5.07-1-8 3.308-6.175 7.153-7.536 14-6Z" fill="#2da8dd"/><path d="M208 418l-6.75 2.938-1.922.841c-4.896 2.117-8.786 3.344-14.11 3.355l-2.906.013-3.167-.002-3.352.01-10.98.013-7.622.01-15.98.007-18.465.026-17.773.018-7.56.013H86.855l-3.167.018-2.906-.013-2.52.002c-2.481-.273-4.116-1.007-6.262-2.249l1.857-.004 44.77-.18 21.65-.087 18.875-.084 9.99-.037 11.161-.062 3.335.015c6.192-.084 9.552-.625 14.362-4.561 3.8-.988 6.272-1.048 10 0z" fill="#fef8dc"/><path d="M145 269l36.014-.26 16.724-.117 16.145-.097 6.154-.055a641.52 641.52 0 0 1 8.631-.039l2.56-.054c6.13.053 9.116 1.627 13.772 5.622 2.704 3.48 2.323 7.596 2.336 11.836l.02 2.294.015 4.796.078 7.3.012 4.672.043 2.189c-.053 5.98-2.034 9.297-6.058 13.56-3.815 2.11-7.515 1.745-11.804 1.694h-2.87a1369.96 1369.96 0 0 1-9.381-.048 4496.777 4496.777 0 0 1-23.63-.087l-17.476-.06A12664.17 12664.17 0 0 1 142 322v-1l3.566-.011a8967.34 8967.34 0 0 0 33.283-.173l17.11-.087 16.514-.097 6.299-.024 8.826-.062 2.627.015c5.373-.092 8.545-.932 12.775-4.561 2.039-4.244 2.256-8.089 2.266-12.754l.007-3.838-.023-3.97.023-3.983-.007-3.834-.007-3.486c-.318-3.849-1.193-6.764-3.571-9.822-4.776-3.715-9.742-3.617-15.517-3.632l-2.663-.03-8.684-.065-6.032-.059-15.856-.128-16.188-.141L145 270v-1z" fill="#bedef9"/><path d="M377 112l68.532-.207 31.82-.095 27.734-.074 14.685-.047 13.824-.03 5.072-.024 6.93-.004 3.916-.011c5.013.707 8.164 2.863 11.33 6.762 1.477 3.486 1.643 6.682 1.66 10.41l.031 2.215.022 4.624.118 7.024c.142 12.522.142 12.522-3.498 16.969-2.777 2.623-5.32 3.396-9.176 3.488l3-2c4.32-2.95 5.667-4.971 7-10 .405-4.682.324-9.365.313-14.063l.048-3.837.002-3.698.01-3.36c-.56-4.57-2.776-8.165-6.373-11.042-3.642-1.249-7.227-1.139-11.049-1.158l-2.15-.015-7.136-.032-5.115-.03-13.89-.068-14.513-.076-27.486-.138-31.291-.16L377 113v-1z" fill="#c1e0f5"/><path d="M253 388l2 1-1 3h-2c.959 2.33.959 2.33 4 4l-1.842 1.035L216 419l-2-3-2-1c10.055-6.51 20.304-12.47 30.899-18.063l2.753-1.468 2.469-1.3c2.03-1.036 2.03-1.036 2.879-3.169l-2-1c1.875-1.063 1.875-1.063 4-2z" fill="#ef9a2f"/><path d="M264 317c2.16.463 3.933.964 5.883 2.022 2.283 1.055 3.745 1.237 6.243 1.256l2.464.034 2.677.007 2.839.03 9.285.065 6.44.059 16.946.128 17.293.141L368 321v-2l4 1c-4.644 3.568-8.68 3.433-14.285 3.404l-2.81.02-9.182.01-6.393.015c-4.464.01-8.929.007-13.393-.003-5.718-.011-11.435.009-17.153.038l-13.2.012-6.324.019a815.13 815.13 0 0 1-8.846-.013l-2.63.029c-5.531-.067-8.529-.93-12.784-4.531l-1-2z" fill="#b77575"/><path d="M410.073 248.718l2.58.007 2.716-.015 8.924-.01 6.196-.014 13.011-.002 16.652-.034 12.809-.013 6.137-.015 8.602.006 2.55-.023c5.312.047 9.044.871 13.75 3.395 1.437 2.188 1.437 2.188 2 4l-5-1-1-3-98-1c2.623-2.623 4.5-2.25 8.073-2.282z" fill="#88c06d"/><path d="M486 307h1l.063 7.438.025 2.142L487 322c-1.75 1.75-4.038 1.132-6.37 1.147l-2.33-.002-2.445.01-8.039.013-5.564.01-11.679.007-14.995.031-11.496.013-5.53.013h-7.722l-2.325.018c-5.277-.032-5.277-.032-7.505-2.26h84v-13l1-1z" fill="#85b970"/><path d="M679 296c3.545 3.072 4.81 5.483 6 10a111.2 111.2 0 0 1 .275 8.097l.015 2.393.01 7.787.014 5.44.002 11.385.034 14.56.013 11.229.015 5.366-.006 7.516.023 2.219c-.051 5.1-1.176 8.521-3.395 13.008h-1v-6h1l.155-32.937.071-15.294.059-14.764.032-5.629.024-7.892.032-2.343c-.027-4.828-.996-7.97-3.373-12.141v-2z" fill="#2a9ecb"/><path d="m595 58 7 1 1 4-145-1v-1h137v-3Z" fill="#369ec7"/><path d="M439 281v11l4 1v2l3 1v2l10 1c-.875 4.875-.875 4.875-2 6h-7v-3l-3.875-.813c-3.622-.759-3.926-.888-6.125-4.187l-1-3.625-1-3.375-2-1v-6c4.875-2 4.875-2 6-2z" fill="#f9fef5"/><path d="M375 164h1l.155 58.908.071 27.352.056 23.834.035 12.624.022 11.876.019 4.365.003 5.948.008 3.366C376 315 376 315 374.477 316.88L373 318v-6h2V164z" fill="#de7361"/><path d="M181 70h1v17l-5.457.012-17.937.12-10.865.064-10.504.077-5.917.008c-7.697.124-13.034 1.144-19.32 5.719l1-5c7.73-3.148 14.496-3.396 22.785-3.293l3.93.013 10.253.074 10.499.06L181 85V70z" fill="#ca7875"/><path d="M65 427l1.78.429c6.67 1.485 12.969 1.851 19.785 1.814l3.364.006 10.923-.019h7.634l15.962-.024a6852.67 6852.67 0 0 1 18.401-.02l17.78-.013 7.533-.006 10.532-.022 3.124.002c5.486-.025 10.754-.338 16.182-1.147-1.695 2.11-2.576 2.93-5.289 3.378l-2.739.003-3.148.026-3.452-.019-3.637.016c-3.294.011-6.587.008-9.88-.001-3.45-.008-6.898 0-10.346.004-5.795.006-11.59-.002-17.384-.016a4198.4 4198.4 0 0 0-20.076.006l-17.246.007c-3.432-.004-6.864-.005-10.296.005-3.83.008-7.66-.004-11.49-.02l-3.435.018c-5.69-.046-9.77-.25-14.582-3.407v-1z" fill="#feedc8"/><path d="M51 59h1v5l-2-1c-1.733 3.755-2.239 6.645-2.195 10.768l.02 3.438.05 3.68.023 3.799L48 96.687l.125 15.825.05 3.7.02 3.408.032 3.01C48 125 48 125 46 127c-1.702-1.702-1.154-3.89-1.177-6.219l-.039-3.38-.022-3.686-.025-3.772-.032-7.932-.062-8.11-.069-11.686-.053-3.644C44.541 70.76 45.228 64.772 51 59z" fill="#da7967"/><path d="M105 102h2v62c-3.104-.776-5.25-1.527-8-3v-2l5 2 1-59Z" fill="#b47474"/><path d="M155 200l1 2-8 3v6h2l1 12-2 1v-2l-2 1-1 6h-1l-.313-3.375L144 222l-3-2c-.375-3.5-.375-3.5 0-7l3-2 1-7c1.125-1.875 1.125-1.875 3-3l7-1z" fill="#fef6e4"/><path d="M397 252l2 1-3 6a82.821 82.821 0 0 0-.158 4.77l-.03 3.003-.023 3.254-.086 6.776-.104 10.718-.122 10.319-.01 3.248-.05 3.013-.025 2.654c-.467 2.674-1.315 3.563-3.392 5.245a2471.2 2471.2 0 0 1-.275-22.26l-.102-7.568-.111-10.895-.078-3.403c-.003-6.998.833-10.637 5.566-15.874z" fill="#78a946"/><path d="M244 185c2 1 2 1 3.106 3.337 1.247 5.11 1.2 10.022 1.195 15.265l.013 3.375.002 7.045.045 10.79.002 6.852.028 3.261-.019 3.034.002 2.664c-.447 2.842-1.499 4.237-3.374 6.377l.007-2.13.045-19.907.023-10.233.023-11.773.015-3.7V195.8l.007-3.035c-.117-2.69-.516-5.144-1.12-7.765z" fill="#b38641"/><path d="M117 89l1 2h-2v5h-4l-1 3h-2l-1 81h-1l-.31-30.878-.143-14.339-.116-13.85a432.073 432.073 0 0 0-.065-5.271c-.295-16.625-.295-16.625 4.951-22.262A110.54 110.54 0 0 1 117 89z" fill="#1f325e"/><path d="M489 301c1.65 3.299.824 6.94.598 10.543-.524 9.5-.77 18.996-.914 28.508l-.033 2.119-.183 12.94-.161 11.165L488 388h-1l-.443-24.987-.205-11.608-.195-11.243-.078-4.247c-.544-27.545-.544-27.545 2.921-34.915z" fill="#43a7c3"/><path d="M142 271l37.056-.104 17.205-.047 16.592-.039 6.342-.021 8.857-.016 2.67-.022c6.05.02 6.05.02 8.278 2.249l-3 1-1-1-8.65-.205-2.75-.03-9.041-.081-6.251-.063-16.488-.153-16.81-.161L142 272v-1z" fill="#093b6a"/><path d="m542.813 248.75 2.119-.063c6.017-.045 9.931 1.457 14.443 5.375C561 256 561 256 561 258c-2 0-2 0-4.5-2.438L554 253c-3.363-1.682-7.118-1.227-10.813-1.25l-2.447-.063c-4.698-.03-8.057.072-11.74 3.313-2.934 4.47-3.51 8.642-3.688 13.875l-.103 2.086A431.29 431.29 0 0 0 525 276h-1a857.506 857.506 0 0 1-.125-7.688l-.05-2.185c-.046-4.948.161-8.906 3.577-12.674 5.207-4.08 8.965-4.656 15.41-4.703Z" fill="#b1d1e8"/><path d="M436 272c.826 2.892 1 4.887 1 8l4 1v11h-2l-1-10-4 1-1 6 3 1c.95 2.285.95 2.285 1.688 5.063l.761 2.785L439 300l2.813-.188C445 300 445 300 446.875 301.5L448 303l-2 1v-2l-2.152-.402-2.786-.536-2.777-.527C436 300 436 300 435 299a85.688 85.688 0 0 1-.563-4.563l-.253-2.503L434 290l-3-1c-.188-2.813-.188-2.813 0-6l3-3 1-7 1-1z" fill="#e8f7cb"/><path d="M157 197h7l1 3-2.813-.313L159 200c-1.935 2.39-1.935 2.39-3 5h8v1l-3.75.25c-4.06.485-5.492 1.707-8.25 4.75-2.75.75-2.75.75-5 1v-7c2.762-2.762 5.207-2.579 9-3l1-5z" fill="#fdf6e1"/><path d="m377 58 1 3h71l1-3 2 4h-75v-4Z" fill="#3598c0"/><path d="M528 192c6.383.602 6.383.602 8.938 2.25 1.416 2.334 1.28 4.071 1.062 6.75l-1-4c-3.118.646-3.118.646-4 3l2 1v11h-3l1-2c.257-3.936.24-6.698-2-10-2.172-.912-2.172-.912-4.625-1.25l-2.477-.453L522 198l1-2h5v-4Z" fill="#def9fc"/><path d="M487 186l2 1-1 3-.281 6.969-.056 2.05-.163 6.481-.219 8.531-.092 3.83C487 221 487 221 486 224l2 1h-3l-.11-14.734-.04-5.01a1118.74 1118.74 0 0 1-.045-7.21l-.032-2.257c0-3.758.123-6.6 2.227-9.789z" fill="#349fd1"/><path d="M447 266h7l1 4 6.055-.293L463 270l2 3-4 1-1 5-2.625-1.438c-3.229-1.494-5.865-2.144-9.375-2.562l1.875-.875c2.258-1.062 2.258-1.062 4.125-3.125-.319-2.108-.319-2.108-1-4h-6v-1Z" fill="#f0f9df"/><path d="M458 181c4.067.19 5.679.695 8.677 3.54 2.87 3.651 2.97 7.193 2.811 11.702l-.021 2.329-.154 7.304-.069 4.977L469 223h-1l-.012-2.934a931.118 931.118 0 0 0-.14-10.836l-.044-4.678-.097-6.747.012-2.094c-.167-5.617-1.92-7.87-5.719-11.711-2.162-1.813-2.162-1.813-4-3z" fill="#c2dee9"/><path d="M488 348h1l.044 3.776.218 13.894.084 6.008.142 8.646.02 2.706c.116 4.958.656 7.767 3.492 11.97l-1 3c-4.02-5.839-4.55-10.093-4.39-17.09l.017-2.862.123-8.986.055-6.119L488 348z" fill="#30a5d7"/><path d="M47 230v3l.25 2.938C47 239 47 239 45 241.375L43 243v-3h-2l-2 6h-2l-1 4-1-2c2.912-6.832 6.96-12.6 12-18Z" fill="#ed9c3b"/><path d="M234 403v2l3 1c-4.491 4.042-9.59 6.437-15 9l1-3c2.063-.688 2.063-.688 4-1v-2h-1l-3-1a804.91 804.91 0 0 1 4.375-2.5l2.46-1.406C232 403 232 403 234 403Z" fill="#e99c35"/><path d="M201 422l-4 1v2l-6 1-1-2 4.375-1.563 2.46-.878C199 421 199 421 201 422zm-3 5c-4.397 2.356-8.002 3.128-12.984 3.098l-2.832-.01-2.934-.026-2.98-.013L169 430v-1h19v-2c3.283-1.642 6.425-.519 10 0z" fill="#ea993b"/><path d="M39 392a62.335 62.335 0 0 1 4.063 7l1.035 2.063C45 403 45 403 46 406h-3v2h2l-1 4-3.5-5.375-1.969-3.023C37 401 37 401 37 399h2l1 3 2 1-1-5h-2v-6z" fill="#ec9d38"/><path d="M106 164h1v16l-5.04.078-6.585.172-3.316.043c-6.268.19-10.274.51-15.059 4.707v-4c3.741-1.726 6.63-2.24 10.738-2.195l3.233.02 3.341.05 3.4.027L106 179v-15z" fill="#e5e1d2"/><path d="M74 221v21h-1l-.184-3.43-.254-4.445-.119-2.262C72.284 227.8 72.284 227.8 71 224l-2.688 1.5c-3.188 1.444-4.894 1.802-8.312 1.5 4.314-3.807 8.154-6 14-6Z" fill="#fee9bf"/><path d="M439 45c5.082 1.893 8.506 3.659 12 8v4c-3.478-1.516-5.956-3.577-8.75-6.125l-2.422-2.195L438 47l1-2Z" fill="#e86e56"/><path d="M206 421c-.25 1.875-.25 1.875-1 4-3.111 2.036-5.584 2.221-9.25 2.125l-2.703-.055L191 427l1-2h5v-2c3.135-1.858 5.375-2.201 9-2Z" fill="#f39424"/><path d="M170 201c2.935.367 3.864.864 6 3v6l-3-2c-.188-2.625-.188-2.625 0-5h-5l2-2zm-6 5c5.625-.25 5.625-.25 9 2-1 3-1 3-3 4l-1.313-1.875c-1.684-2.345-1.684-2.345-4.687-4.125z" fill="#fdf6d6"/><path d="M534 197h3c2.532 8.787 2.532 8.787 1 13l-2 1-1-4.75-.563-2.672C534 201 534 201 534 197z" fill="#fbfcfe"/><path d="M432 285l.313 1.938L433 289l3 1c.95 2.285.95 2.285 1.688 5.063l.761 2.785L439 300l2.813-.188C445 300 445 300 446.875 301.5L448 303l-2 1v-2l-2.152-.402-2.786-.536-2.777-.527C436 300 436 300 435 299a85.688 85.688 0 0 1-.563-4.563l-.253-2.503L434 290h-2v-5z" fill="#eefad6"/><path d="M208 418c-14.597 6.888-14.597 6.888-22 6v-1l3.75-.813c3.44-.844 5.439-2.032 8.25-4.187 3.768-.942 6.304-1.051 10 0Z" fill="#fef8df"/><path d="M272 402l2.09 1.094c8.563 4.228 14.613 4.813 23.91 2.906-1.05 1.473-1.05 1.473-3 3-8.407 1.107-15.805.699-23-4v-3z" fill="#fef5d3"/><path d="M77 248l1.597.632c6.052 2.226 11.548 2.89 17.966 3.055l2.767.104L106 252v1l-11.688.313-3.341.126c-8.04.122-8.04.122-10.856-1.574C78.73 250.48 78.73 250.48 77 248z" fill="#e39123"/><path d="M350 377h2v3l-5.375 2.5-3.023 1.406C341 385 341 385 339 385v2h-5c2.587-3.02 5.57-4.42 9.125-6.125 3.68-1.572 3.68-1.572 6.875-3.875z" fill="#fef3cf"/><path d="M35 375h1l1 9h-1l-1 8h2l-2 4c-2.117-7.54-2.932-13.486 0-21Z" fill="#ec992d"/><path d="m256 393 8 2v2h4v2h2l1-3 1 4c-4.176 1.392-5.79-.046-9.688-1.938l-3.574-1.714L256 395v-2Z" fill="#ed9832"/><path d="M461 272l4 1-1 9-4-2v-7l1-1z" fill="#fcfefa"/><path d="M132 307h1l.445 1.828c1.546 5.714 1.546 5.714 5.743 9.61L142 320v2c-4.267-.474-6.246-2.883-9-6-1.823-2.652-2.065-3.522-1.625-6.75L132 307Z" fill="#aec9df"/><path d="m155 200 1 2-3.813 1c-2.691.977-3.887 1.505-5.386 3.98-.926 2.447-.926 2.447-1.801 6.02l-2-1 1-1 .375-3.375c.625-3.625.625-3.625 1.75-5.5 2.819-1.691 5.645-1.82 8.875-2.125Z" fill="#fde6b7"/><path d="m117 89 1 2h-2v5h-4l-1 3h-2v3h-2c1.49-4.914 4.442-8.403 8-12l2-1Z" fill="#2f4263"/><path d="M627 77c3.337 1.38 5.223 2.82 7 6-.313 2.25-.313 2.25-1 4h-2a651.927 651.927 0 0 1-2-3.875l-1.125-2.18C627 79 627 79 627 77Z" fill="#2da9d8"/><path d="m69 423 7 1 1 3-1 2 3 1c-4.03-.553-8.02-1.156-12-2v-1h7v-2h-5v-2Z" fill="#eb9e3c"/><path d="M542 204h1v7h-2l.688 2.313L542 216c-1.438 1.813-1.438 1.813-3 3l-2-1 1-7 3-2c.73-2.563.73-2.563 1-5z" fill="#31a3d0"/><path d="M528 191v5l-9 1c4.5-6 4.5-6 9-6Z" fill="#f8fdfd"/><path d="M231 408l-4 1v2l-1.938.875c-2.214.953-2.214.953-3.062 3.125h-2v-5l3.813-1.563 2.144-.878C228 407 228 407 231 408z" fill="#ef9720"/><path d="M602 59l4.375 1.375 2.46.773C611 62 611 62 613 64c-3 0-3 0-4.938-.625-2.125-.606-2.125-.606-4.062.688L602 65c-2.25-.875-2.25-.875-4-2h5l-1-4z" fill="#42a8d3"/><path d="M405 31l4.375.438 2.46.246C414 32 414 32 416 33v3c-4.805.565-7.243-1.117-11-4v-1z" fill="#ea6d58"/><path d="M239.563 396.938 242 397c-9.429 8-9.429 8-14 8v-2h3l1-3c2-1.125 2-1.125 4-2 1-1 1-1 3.563-1.063Z" fill="#fef7d9"/><path d="m171 39 1 2h-2v2c-3.27 3.27-6.513 3.569-11 4 3.407-3.975 7.328-5.868 12-8Z" fill="#fdece0"/><path d="M465 273h1l1 9 3 1v6l-.75-1.813c-1.087-2.347-1.087-2.347-3.438-3.375-1.812-1.812-1.812-1.812-1.847-4A89.123 89.123 0 0 1 465 273Z" fill="#eefbd8"/><path d="M236 269c4.438 1.395 6.943 3.519 10 7l1 3-2 2-.813-2.313c-1.677-3.797-3.077-5.197-6.875-6.875L235 271l1-2Z" fill="#a7c7dd"/><path d="M156 206l3 1-4 5h-3v2h-2v-3h2l1-3 3-2z" fill="#f19a31"/><path d="m538 202 3 2c.188 3.125.188 3.125 0 6l-2 1-.5 3.5-.5 3.5-2 1c.484-4.722 1.042-9.348 2-14v-3Z" fill="#d3f6fa"/><path d="M528 192l7 1 1 2-6 1v2h-8l1-2h5v-4z" fill="#ccf1f9"/><path d="m595 58 7 1 1 4h-7l-1-5Z" fill="#2ca2d6"/><path d="M160 51a1321.89 1321.89 0 0 1 6.938 3.375l1.998.96c4.95 2.438 4.95 2.438 6.064 4.665-2.5-.463-4.18-1.109-6.375-2.438-2.801-1.667-5.513-2.621-8.625-3.562v-3Z" fill="#da7460"/><path d="m50 234 1 3c-1.813 2.688-1.813 2.688-4 5h-2l-.375 1.938L44 246l-2 1c1.364-5.593 4.154-8.912 8-13Z" fill="#feefcd"/><path d="m133 153 1.75 2.313c2.847 3.4 5.042 5.284 9.25 6.687l-1 2c-5.016-1.833-8.14-3.234-11-8l1-3Z" fill="#a7c8da"/><path d="M459 292v2c-3.972 3.13-7.042 3.292-12 3l1-2h5v-2c3-1 3-1 6-1Z" fill="#a4c45c"/><path d="M546.266 266.883 548 268a157.298 157.298 0 0 1-3.75 2.125l-2.11 1.195c-2.14.68-2.14.68-4.406-.203L536 270a157.298 157.298 0 0 1 3.75-2.125l2.11-1.195c2.14-.68 2.14-.68 4.406.203Z" fill="#30a3d4"/><path d="M139 214h2l.313 2.875c.372 3.416.372 3.416 3.687 5.125l-1 2-6-2 1-8Z" fill="#eb9a33"/><path d="m637 96 3 4 2-3 1 7-3-1-1 3-2-10Z" fill="#2f9dc9"/><path d="M469 80c2 1 2 1 3.125 4.063L473 87h-6l-1-4h3v-3Z" fill="#ce726a"/><path d="m467 224 1 3c-2.884 3.408-4.37 4.866-8.813 5.813L456 233c3-2 3-2 5.5-3.375 2.525-1.641 3.864-3.128 5.5-5.625Z" fill="#b6cfe3"/><path d="M180 213h1l1 8-1.938 1.125c-2.7 2.456-2.746 4.32-3.062 7.875l-2-1a294.9 294.9 0 0 1 .875-3.938l.492-2.214C177 221 177 221 179 220l1-7z" fill="#e99b3c"/><path d="M402.313 181.25 404 182l-2.813 1.75c-2.818 1.99-4.233 3.514-6.187 6.25h-2c1.387-4.54 3.942-9.33 9.313-8.75Z" fill="#b1cce2"/><path d="M292 179l2 1-.098 5.957c.015 2.246.015 2.246 1.098 5.043l-4-2-.063-4.438-.035-2.496C291 180 291 180 292 179z" fill="#feebdb"/><path d="M64 138v2l3 1 1 3c-3.912-1.156-6.875-2.355-10-5 2.076-.553 3.844-1 6-1Z" fill="#df7762"/><path d="m179 66 2 1v18h-1l-.184-3.176-.254-4.136-.119-2.092c-.192-3.068-.466-5.666-1.443-8.596l1-1Z" fill="#dc6a53"/><path d="M464 68c3.875.875 3.875.875 5 2v7c-4.429-5.143-4.429-5.143-5-9z" fill="#fdefe7"/><path d="M437 48c4.415.487 6.304 1.85 9.313 5.063l2.113 2.222L450 57c-3.739 0-4.366-.905-7.063-3.375l-2.097-1.898c-1.3-1.221-2.579-2.466-3.84-3.727Z" fill="#d67667"/><path d="m65 427 15 3v1c-5.842.35-9.853.167-15-3v-1Z" fill="#fef4d4"/><path d="M48 411c4.677 1.477 4.677 1.477 6.313 4.125L55 417l-6-1-1-5Z" fill="#f69322"/><path d="m235 401 5 1-2 4-4-1 1-4Z" fill="#f49621"/><path d="m397 252 2 1a56.54 56.54 0 0 1-4 7h-2c.6-3.356 1.846-5.378 4-8Z" fill="#86bc5b"/><path d="M41 240h2l1 4-4 2v2h-2l3-8z" fill="#f99a26"/><path d="M62 222v4l-6 1-1-2h2v-2c2-1 2-1 5-1Z" fill="#f69a1f"/><path d="M512 204c2.125 3.188 2.502 5.265 3 9l-2 1c-1.837-3.782-2.158-5.946-1-10Z" fill="#fcfefb"/><path d="m347 181 2 1v4h3v2l-5 2v-9Z" fill="#d86c54"/><path d="M335 162.125c2.546 1.114 3.513 2.57 5 4.875-3.41-.787-6.689-1.871-10-3 3-2 3-2 5-1.875Z" fill="#fee8e0"/><path d="M121 87c-2.88 2.24-5.849 4.162-9 6l1-5c2.928-.976 4.956-1.082 8-1Z" fill="#ce746f"/><path d="m620 67 8 1v6a962.085 962.085 0 0 1-4-2.938l-2.25-1.652L620 68v-1Z" fill="#dff9fc"/><path d="m449 58 3 2v2h-16v-1h13v-3Z" fill="#4a95b7"/><path d="M488 384h1l.875 3.188c1.011 3.69 1.011 3.69 2.313 6.625L493 396l-1 2c-3.249-4.975-4.5-7.882-4-14Z" fill="#2f9ecd"/><path d="M684 384c.955 2.17 1.144 3.563.398 5.824L682 395h-1c-.18-3.94-.127-6.622 2-10l1-1z" fill="#3ca4d0"/><path d="m531 213 1 3c-1 1-1 1-3.723 1.098l-3.34-.036-3.347-.027L519 217v-2l1.863.07 2.45.055 2.425.07c2.546-.037 2.546-.037 5.262-2.195Z" fill="#cef5fc"/><path d="m133 113 3 1-3 6h-2l-1-6h2l1-1Z" fill="#204c79"/><path d="M495 288h5l-2 3h-2v3l-4 2 1-3h2v-5Z" fill="#80c569"/><path d="M71 220v2c-4.75 1.125-4.75 1.125-7 0v-2c2.667-1.333 4.167-.671 7 0Z" fill="#f49726"/><path d="m345 179 2 1v9h-4l2-1v-9Z" fill="#feece2"/><path d="m267 47 3 1-1.46 1.242-1.915 1.633-1.898 1.617A75.822 75.822 0 0 0 261 56l1-5h2l1-3 2-1Z" fill="#feecdf"/><path d="M168 35c3.257.418 4.634.634 7 3l-7 1-1-3 1-1Z" fill="#df684e"/><path d="M343 382v2l-4 1v2h-5c2.545-2.8 5.076-5 9-5Z" fill="#fdeec4"/><path d="m376 312 2 3c-1.098 2.993-1.677 3.846-4.625 5.25L371 321l1.938-2.813c2.148-3.03 2.148-3.03 3.062-6.187Z" fill="#294269"/><path d="M521 278c0 3 0 3-1.375 4.688C518 284 518 284 516 284v-4l5-2Z" fill="#2ba0ce"/><path d="M497 250c3.821.53 6.062 1.497 9 4l-1 2c-1.938-.313-1.938-.313-4-1l-1-3-3-2Z" fill="#8abf62"/><path d="M397 225l2 2 5 1v3c-3.242-.35-4.615-.562-6.813-3.063L396 226l1-1z" fill="#15466b"/><path d="M552 112c3.83 1.596 5.667 2.5 8 6-3 0-3 0-4.438-1.375L554 115l-4-2 2-1z" fill="#a7c3d4"/><path d="m133 37 11 5c-4 1-4 1-7.188-.25C134 40 134 40 133 37Z" fill="#dd7367"/><path d="m209 422 2 1-1 2h-2l-1 3-4-3a100.644 100.644 0 0 1 6-3Z" fill="#fcf1cf"/><path d="M253 398v2c-4.153 3.115-4.153 3.115-7.313 2.688L244 402c6.75-4 6.75-4 9-4Z" fill="#fef0cd"/><path d="M248 390l3 1-1 3-6 2 1-3h3v-3z" fill="#feecbf"/><path d="M345 381l-6 3-3-1v-2c3.378-.845 5.675-1.108 9 0z" fill="#ea9827"/><path d="m469 289 2 3-3 2c-1.192 2.05-1.192 2.05-2 4-.188-3.375-.188-3.375 0-7l3-2Z" fill="#a3c35c"/><path d="m141 271 3 2h-4l-2 4-3-2 6-4Z" fill="#284b77"/><path d="m77 248 9 3-4 2-5-5Z" fill="#ed9a43"/><path d="M336 207c-2 2-2 2-5.125 2.125L328 209l-1-2c3.478-1.16 5.459-.708 9 0Z" fill="#e0826e"/><path d="m558 181 1 3h3v3h2l-1 3c-2.5-2.25-2.5-2.25-5-5v-4Z" fill="#0e4f89"/><path d="M458 181c5.538.492 5.538.492 7.875 3.063L467 186c-4.015 0-5.82-1.668-9-4v-1Z" fill="#aacadf"/><path d="m496 403 7 3-2 2c-2.625-.375-2.625-.375-5-1v-4Z" fill="#daf7fd"/><path d="M463 301c-2.938 2.503-5.179 3.47-9 4l1-3c2.709-1.354 5.01-1.065 8-1Z" fill="#a7c762"/><path d="m244 248 3 3c-1.813 1.563-1.813 1.563-4 3l-3-1h2l.438-1.938C243 249 243 249 244 248Z" fill="#1f486c"/><path d="M551 248c2.763.523 5.326 1.109 8 2l-1 3-7-3v-2Z" fill="#244e7c"/><path d="M141 213h2l1 8-3-1v-7Z" fill="#ffefc3"/><path d="M533 204h1c.37 5.538.37 5.538-1.5 7.875L531 213l-1-3 1-2h2v-4Z" fill="#37a2d4"/><path d="m295 192 3 4c-.813 3.25-.813 3.25-2 6h-1v-10Z" fill="#db7868"/><path d="m643 102 1 4-5 2 1-5 3-1Z" fill="#3cacdc"/><path d="M398 29l5 1 1 2h-8l2-1v-2z" fill="#e76a53"/></svg>